<?xml version="1.0" encoding="UTF-8"?>
<svg width="700pt" height="700pt" version="1.1" viewBox="0 0 600 600" xmlns="http://www.w3.org/2000/svg" xmlns:xlink="http://www.w3.org/1999/xlink">
 <defs>
  <symbol id="v" overflow="visible">
   <path d="m1.875-0.10938c-0.09375 0.054688-0.19531 0.089844-0.29688 0.10938-0.10547 0.03125-0.21484 0.046875-0.32812 0.046875-0.34375 0-0.61719-0.09375-0.8125-0.28125-0.19922-0.19531-0.29688-0.45703-0.29688-0.78125 0-0.32031 0.097656-0.57812 0.29688-0.76562 0.19531-0.19531 0.46875-0.29688 0.8125-0.29688 0.11328 0 0.22266 0.015625 0.32812 0.046875 0.10156 0.023438 0.20312 0.058594 0.29688 0.10938v0.42188c-0.09375-0.070312-0.19531-0.11719-0.29688-0.14062-0.09375-0.03125-0.19531-0.046875-0.29688-0.046875-0.1875 0-0.33594 0.0625-0.4375 0.1875-0.10547 0.11719-0.15625 0.27734-0.15625 0.48438 0 0.21094 0.050781 0.375 0.15625 0.5 0.10156 0.11719 0.25 0.17188 0.4375 0.17188 0.10156 0 0.20312-0.015625 0.29688-0.046875 0.10156-0.03125 0.20312-0.078125 0.29688-0.14062z"/>
  </symbol>
  <symbol id="c" overflow="visible">
   <path d="m1.375-1.1094c-0.042969-0.019531-0.085938-0.035156-0.125-0.046875-0.042969-0.007812-0.089844-0.015625-0.14062-0.015625-0.125 0-0.22656 0.042969-0.29688 0.125-0.0625 0.074219-0.09375 0.1875-0.09375 0.34375v0.70312h-0.48438v-1.5312h0.48438v0.25c0.0625-0.09375 0.13281-0.16016 0.21875-0.20312 0.082031-0.050781 0.17969-0.078125 0.29688-0.078125h0.046875 0.09375z"/>
  </symbol>
  <symbol id="a" overflow="visible">
   <path d="m1.7656-0.76562v0.14062h-1.1406c0.007812 0.11719 0.046875 0.20312 0.10938 0.26562 0.070313 0.054687 0.17578 0.078125 0.3125 0.078125 0.09375 0 0.19141-0.015625 0.29688-0.046875 0.11328-0.03125 0.22656-0.078125 0.34375-0.14062v0.375c-0.11719 0.042969-0.23047 0.074219-0.34375 0.09375-0.11719 0.03125-0.23047 0.046875-0.34375 0.046875-0.28125 0-0.5-0.066406-0.65625-0.20312-0.14844-0.14453-0.21875-0.34766-0.21875-0.60938 0-0.25 0.070312-0.44141 0.21875-0.57812 0.15625-0.14453 0.36328-0.21875 0.625-0.21875 0.23828 0 0.42969 0.074219 0.57812 0.21875 0.14453 0.14844 0.21875 0.33984 0.21875 0.57812zm-0.5-0.17188c0-0.09375-0.03125-0.16406-0.09375-0.21875-0.054687-0.050781-0.12109-0.078125-0.20312-0.078125-0.09375 0-0.17188 0.027344-0.23438 0.078125-0.0625 0.054688-0.10156 0.125-0.10938 0.21875z"/>
  </symbol>
  <symbol id="m" overflow="visible">
   <path d="m0.92188-0.6875c-0.10547 0-0.18359 0.023438-0.23438 0.0625-0.054688 0.03125-0.078125 0.078125-0.078125 0.14062s0.019531 0.11719 0.0625 0.15625c0.039063 0.03125 0.097656 0.046875 0.17188 0.046875 0.09375 0 0.17188-0.03125 0.23438-0.09375 0.0625-0.070312 0.09375-0.15625 0.09375-0.25v-0.0625zm0.75-0.1875v0.875h-0.5v-0.23438c-0.0625 0.09375-0.13672 0.16797-0.21875 0.21875-0.085937 0.039062-0.18359 0.0625-0.29688 0.0625-0.15625 0-0.28906-0.046875-0.39062-0.14062-0.09375-0.09375-0.14062-0.21094-0.14062-0.35938 0-0.1875 0.054688-0.32031 0.17188-0.40625 0.125-0.082031 0.32031-0.125 0.59375-0.125h0.28125v-0.03125c0-0.082031-0.03125-0.14062-0.09375-0.17188s-0.15625-0.046875-0.28125-0.046875c-0.10547 0-0.20312 0.011719-0.29688 0.03125-0.085938 0.023437-0.16797 0.054687-0.25 0.09375v-0.375c0.10156-0.03125 0.20703-0.050781 0.3125-0.0625 0.11328-0.007813 0.22266-0.015625 0.32812-0.015625 0.26953 0 0.46875 0.058594 0.59375 0.17188 0.125 0.10547 0.1875 0.27734 0.1875 0.51562z"/>
  </symbol>
  <symbol id="b" overflow="visible">
   <path d="m0.76562-1.9688v0.4375h0.5v0.34375h-0.5v0.65625c0 0.074219 0.015625 0.125 0.046875 0.15625 0.03125 0.023438 0.085938 0.03125 0.17188 0.03125h0.25v0.34375h-0.42188c-0.19922 0-0.33984-0.035156-0.42188-0.10938-0.074219-0.082031-0.10938-0.22266-0.10938-0.42188v-0.65625h-0.25v-0.34375h0.25v-0.4375z"/>
  </symbol>
  <symbol id="l" overflow="visible">
   <path d="m1.2812-1.3125v-0.8125h0.48438v2.125h-0.48438v-0.21875c-0.074219 0.085938-0.15234 0.15234-0.23438 0.20312-0.074219 0.039062-0.16797 0.0625-0.28125 0.0625-0.1875 0-0.34375-0.070312-0.46875-0.21875-0.11719-0.15625-0.17188-0.35156-0.17188-0.59375 0-0.22656 0.054688-0.41406 0.17188-0.5625 0.125-0.15625 0.28125-0.23438 0.46875-0.23438 0.11328 0 0.20703 0.023438 0.28125 0.0625 0.082031 0.042969 0.16016 0.10547 0.23438 0.1875zm-0.32812 1c0.10156 0 0.17969-0.035156 0.23438-0.10938 0.0625-0.082031 0.09375-0.19531 0.09375-0.34375 0-0.14453-0.03125-0.25391-0.09375-0.32812-0.054688-0.082031-0.13281-0.125-0.23438-0.125-0.10547 0-0.1875 0.042969-0.25 0.125-0.054687 0.074219-0.078125 0.18359-0.078125 0.32812 0 0.14844 0.023438 0.26172 0.078125 0.34375 0.0625 0.074219 0.14453 0.10938 0.25 0.10938z"/>
  </symbol>
  <symbol id="k" overflow="visible">
   <path d="m1.0469-0.3125c0.10156 0 0.17969-0.035156 0.23438-0.10938 0.0625-0.082031 0.09375-0.19531 0.09375-0.34375 0-0.14453-0.03125-0.25391-0.09375-0.32812-0.054688-0.082031-0.13281-0.125-0.23438-0.125-0.10547 0-0.1875 0.042969-0.25 0.125-0.054687 0.074219-0.078125 0.18359-0.078125 0.32812 0 0.14844 0.023438 0.26172 0.078125 0.34375 0.0625 0.074219 0.14453 0.10938 0.25 0.10938zm-0.32812-1c0.070312-0.082031 0.14844-0.14453 0.23438-0.1875 0.082031-0.039062 0.17578-0.0625 0.28125-0.0625 0.1875 0 0.33594 0.078125 0.45312 0.23438 0.125 0.14844 0.1875 0.33594 0.1875 0.5625 0 0.24219-0.0625 0.4375-0.1875 0.59375-0.11719 0.14844-0.26562 0.21875-0.45312 0.21875-0.10547 0-0.19922-0.023438-0.28125-0.0625-0.085937-0.050781-0.16406-0.11719-0.23438-0.20312v0.21875h-0.48438v-2.125h0.48438z"/>
  </symbol>
  <symbol id="j" overflow="visible">
   <path d="m0.03125-1.5312h0.48438l0.42188 1.0469 0.34375-1.0469h0.48438l-0.64062 1.6719c-0.0625 0.17578-0.13672 0.29688-0.21875 0.35938-0.085938 0.070312-0.19922 0.10938-0.34375 0.10938h-0.28125v-0.32812h0.15625c0.082031 0 0.14062-0.015625 0.17188-0.046875 0.039063-0.023437 0.070313-0.070313 0.09375-0.14062l0.015625-0.03125z"/>
  </symbol>
  <symbol id="i" overflow="visible">
   <path d="m1.1875-1.6875c-0.15625 0-0.28125 0.058594-0.375 0.17188-0.085938 0.11719-0.125 0.28125-0.125 0.5 0 0.21094 0.039062 0.375 0.125 0.5 0.09375 0.11719 0.21875 0.17188 0.375 0.17188 0.16406 0 0.28906-0.054688 0.375-0.17188 0.082031-0.125 0.125-0.28906 0.125-0.5 0-0.21875-0.042969-0.38281-0.125-0.5-0.085938-0.11328-0.21094-0.17188-0.375-0.17188zm0-0.39062c0.33203 0 0.58594 0.09375 0.76562 0.28125 0.1875 0.1875 0.28125 0.44922 0.28125 0.78125 0 0.33594-0.09375 0.59375-0.28125 0.78125-0.17969 0.1875-0.43359 0.28125-0.76562 0.28125-0.32422 0-0.57812-0.09375-0.76562-0.28125s-0.28125-0.44531-0.28125-0.78125c0-0.33203 0.09375-0.59375 0.28125-0.78125s0.44141-0.28125 0.76562-0.28125z"/>
  </symbol>
  <symbol id="u" overflow="visible">
   <path d="m0.71875-0.21875v0.79688h-0.48438v-2.1094h0.48438v0.21875c0.070312-0.082031 0.14844-0.14453 0.23438-0.1875 0.082031-0.039062 0.17578-0.0625 0.28125-0.0625 0.1875 0 0.33594 0.078125 0.45312 0.23438 0.125 0.14844 0.1875 0.33594 0.1875 0.5625 0 0.24219-0.0625 0.4375-0.1875 0.59375-0.11719 0.14844-0.26562 0.21875-0.45312 0.21875-0.10547 0-0.19922-0.023438-0.28125-0.0625-0.085937-0.050781-0.16406-0.11719-0.23438-0.20312zm0.32812-1c-0.10547 0-0.1875 0.042969-0.25 0.125-0.054687 0.074219-0.078125 0.18359-0.078125 0.32812 0 0.14844 0.023438 0.26172 0.078125 0.34375 0.0625 0.074219 0.14453 0.10938 0.25 0.10938 0.10156 0 0.17969-0.035156 0.23438-0.10938 0.0625-0.082031 0.09375-0.19531 0.09375-0.34375 0-0.14453-0.03125-0.25391-0.09375-0.32812-0.054688-0.082031-0.13281-0.125-0.23438-0.125z"/>
  </symbol>
  <symbol id="h" overflow="visible">
   <path d="m0.23438-1.5312h0.48438v1.5312h-0.48438zm0-0.59375h0.48438v0.40625h-0.48438z"/>
  </symbol>
  <symbol id="e" overflow="visible">
   <path d="m1.6562-1.2812c0.0625-0.09375 0.13281-0.16016 0.21875-0.20312 0.082031-0.050781 0.17578-0.078125 0.28125-0.078125 0.17578 0 0.30469 0.058594 0.39062 0.17188 0.09375 0.10547 0.14062 0.25781 0.14062 0.45312v0.9375h-0.48438v-0.79688-0.03125-0.0625c0-0.10156-0.015625-0.17969-0.046875-0.23438-0.03125-0.050781-0.085938-0.078125-0.15625-0.078125-0.09375 0-0.16797 0.042969-0.21875 0.125-0.042969 0.074219-0.070312 0.18359-0.078125 0.32812v0.75h-0.48438v-0.79688c0-0.16406-0.015625-0.27344-0.046875-0.32812-0.03125-0.050781-0.085937-0.078125-0.15625-0.078125-0.09375 0-0.16797 0.042969-0.21875 0.125-0.054687 0.074219-0.078125 0.18359-0.078125 0.32812v0.75h-0.48438v-1.5312h0.48438v0.21875c0.0625-0.082031 0.12891-0.14453 0.20312-0.1875 0.082031-0.039062 0.17188-0.0625 0.26562-0.0625 0.10156 0 0.19531 0.027344 0.28125 0.078125 0.082031 0.054687 0.14453 0.12109 0.1875 0.20312z"/>
  </symbol>
  <symbol id="g" overflow="visible">
   <path d="m0.21875-0.59375v-0.9375h0.48438v0.15625 0.3125 0.25 0.26562c0.007813 0.054687 0.023437 0.089844 0.046875 0.10938 0.019531 0.042969 0.046875 0.074219 0.078125 0.09375 0.03125 0.011719 0.066406 0.015625 0.10938 0.015625 0.10156 0 0.17969-0.035156 0.23438-0.10938 0.0625-0.082031 0.09375-0.19531 0.09375-0.34375v-0.75h0.48438v1.5312h-0.48438v-0.21875c-0.074219 0.085938-0.15234 0.15234-0.23438 0.20312-0.085938 0.039062-0.17188 0.0625-0.26562 0.0625-0.17969 0-0.3125-0.050781-0.40625-0.15625-0.09375-0.11328-0.14062-0.27344-0.14062-0.48438z"/>
  </symbol>
  <symbol id="t" overflow="visible">
   <path d="m1.4375-1.4844v0.375c-0.11719-0.039063-0.21875-0.070313-0.3125-0.09375-0.09375-0.019531-0.1875-0.03125-0.28125-0.03125-0.085938 0-0.15234 0.011719-0.20312 0.03125-0.042969 0.023437-0.0625 0.058594-0.0625 0.10938 0 0.03125 0.015625 0.058594 0.046875 0.078125 0.03125 0.023437 0.09375 0.039063 0.1875 0.046875l0.078125 0.015625c0.25 0.03125 0.41406 0.085937 0.5 0.15625 0.09375 0.074219 0.14062 0.1875 0.14062 0.34375 0 0.16797-0.0625 0.29297-0.1875 0.375-0.11719 0.082031-0.29297 0.125-0.53125 0.125-0.10547 0-0.21094-0.011719-0.3125-0.03125-0.10547-0.019531-0.21484-0.046875-0.32812-0.078125v-0.35938c0.09375 0.042969 0.19141 0.078125 0.29688 0.10938 0.10156 0.023438 0.20703 0.03125 0.3125 0.03125 0.09375 0 0.16016-0.007812 0.20312-0.03125 0.050781-0.03125 0.078125-0.070312 0.078125-0.125 0-0.050781-0.015625-0.085938-0.046875-0.10938-0.03125-0.019531-0.10156-0.035156-0.20312-0.046875h-0.078125c-0.21875-0.03125-0.375-0.082031-0.46875-0.15625-0.085937-0.070312-0.125-0.1875-0.125-0.34375s0.054687-0.26953 0.17188-0.34375c0.11328-0.082031 0.28516-0.125 0.51562-0.125 0.082031 0 0.17188 0.007812 0.26562 0.015625 0.10156 0.011719 0.21875 0.03125 0.34375 0.0625z"/>
  </symbol>
  <symbol id="f" overflow="visible">
   <path d="m0.25-2.0312h0.875c0.25781 0 0.45703 0.058594 0.59375 0.17188 0.14453 0.11719 0.21875 0.27734 0.21875 0.48438 0 0.21875-0.074219 0.38672-0.21875 0.5-0.13672 0.11719-0.33594 0.17188-0.59375 0.17188h-0.34375v0.70312h-0.53125zm0.53125 0.375v0.5625h0.29688c0.09375 0 0.16406-0.019531 0.21875-0.0625 0.0625-0.050781 0.09375-0.125 0.09375-0.21875s-0.03125-0.16016-0.09375-0.20312c-0.054687-0.050781-0.125-0.078125-0.21875-0.078125z"/>
  </symbol>
  <symbol id="s" overflow="visible">
   <path d="m1.2344-2.125v0.32812h-0.26562c-0.0625 0-0.10938 0.011719-0.14062 0.03125-0.03125 0.023437-0.046875 0.0625-0.046875 0.125v0.10938h0.42188v0.34375h-0.42188v1.1875h-0.48438v-1.1875h-0.25v-0.34375h0.25v-0.10938c0-0.16406 0.046875-0.28516 0.14062-0.35938 0.09375-0.082031 0.23828-0.125 0.4375-0.125z"/>
  </symbol>
  <symbol id="d" overflow="visible">
   <path d="m0.96875-1.2188c-0.11719 0-0.20312 0.042969-0.26562 0.125-0.054687 0.074219-0.078125 0.18359-0.078125 0.32812 0 0.14844 0.023438 0.26172 0.078125 0.34375 0.0625 0.074219 0.14844 0.10938 0.26562 0.10938 0.10156 0 0.17969-0.035156 0.23438-0.10938 0.0625-0.082031 0.09375-0.19531 0.09375-0.34375 0-0.14453-0.03125-0.25391-0.09375-0.32812-0.054687-0.082031-0.13281-0.125-0.23438-0.125zm0-0.34375c0.25781 0 0.46094 0.074219 0.60938 0.21875 0.14453 0.13672 0.21875 0.32812 0.21875 0.57812s-0.074219 0.44922-0.21875 0.59375c-0.14844 0.14844-0.35156 0.21875-0.60938 0.21875-0.27344 0-0.48047-0.070312-0.625-0.21875-0.14844-0.14453-0.21875-0.34375-0.21875-0.59375s0.070312-0.44141 0.21875-0.57812c0.14453-0.14453 0.35156-0.21875 0.625-0.21875z"/>
  </symbol>
  <symbol id="r" overflow="visible">
   <path d="m1.7656-0.9375v0.9375h-0.48438v-0.70312c0-0.13281-0.007812-0.22656-0.015625-0.28125 0-0.050781-0.011719-0.085937-0.03125-0.10938-0.011719-0.03125-0.039063-0.054688-0.078125-0.078125-0.03125-0.019531-0.070312-0.03125-0.10938-0.03125-0.09375 0-0.17188 0.042969-0.23438 0.125-0.0625 0.074219-0.09375 0.18359-0.09375 0.32812v0.75h-0.48438v-2.125h0.48438v0.8125c0.070312-0.082031 0.14844-0.14453 0.23438-0.1875 0.082031-0.039062 0.17578-0.0625 0.28125-0.0625 0.17578 0 0.30469 0.058594 0.39062 0.17188 0.09375 0.10547 0.14062 0.25781 0.14062 0.45312z"/>
  </symbol>
  <symbol id="q" overflow="visible">
   <path d="m0.25-2.0312h0.59375l0.73438 1.3906v-1.3906h0.5v2.0312h-0.57812l-0.75-1.4062v1.4062h-0.5z"/>
  </symbol>
  <symbol id="p" overflow="visible">
   <path d="m1.7656-0.9375v0.9375h-0.48438v-0.71875c0-0.125-0.007812-0.21094-0.015625-0.26562 0-0.050781-0.011719-0.085937-0.03125-0.10938-0.011719-0.03125-0.039063-0.054688-0.078125-0.078125-0.03125-0.019531-0.070312-0.03125-0.10938-0.03125-0.09375 0-0.17188 0.042969-0.23438 0.125-0.0625 0.074219-0.09375 0.18359-0.09375 0.32812v0.75h-0.48438v-1.5312h0.48438v0.21875c0.070312-0.082031 0.14844-0.14453 0.23438-0.1875 0.082031-0.039062 0.17578-0.0625 0.28125-0.0625 0.17578 0 0.30469 0.058594 0.39062 0.17188 0.09375 0.10547 0.14062 0.25781 0.14062 0.45312z"/>
  </symbol>
  <symbol id="o" overflow="visible">
   <path d="m0.23438-1.5312h0.48438v1.5c0 0.20703-0.054688 0.36328-0.15625 0.46875-0.09375 0.11328-0.23047 0.17188-0.40625 0.17188h-0.25v-0.32812h0.078125c0.09375 0 0.15625-0.023438 0.1875-0.0625 0.039063-0.042969 0.0625-0.125 0.0625-0.25zm0-0.59375h0.48438v0.40625h-0.48438z"/>
  </symbol>
  <symbol id="n" overflow="visible">
   <path d="m1.4688-1.4844v0.40625c-0.0625-0.050781-0.13281-0.085937-0.20312-0.10938-0.0625-0.019531-0.13281-0.03125-0.20312-0.03125-0.13672 0-0.24609 0.042969-0.32812 0.125-0.074219 0.074219-0.10938 0.18359-0.10938 0.32812 0 0.14844 0.035156 0.26172 0.10938 0.34375 0.082031 0.074219 0.19141 0.10938 0.32812 0.10938 0.070312 0 0.14453-0.007812 0.21875-0.03125 0.070312-0.019531 0.13281-0.050781 0.1875-0.09375v0.39062c-0.074219 0.03125-0.15234 0.050781-0.23438 0.0625-0.074219 0.019531-0.15234 0.03125-0.23438 0.03125-0.27344 0-0.48438-0.070312-0.64062-0.21875-0.15625-0.14453-0.23438-0.34375-0.23438-0.59375s0.078125-0.44141 0.23438-0.57812c0.15625-0.14453 0.36719-0.21875 0.64062-0.21875 0.082031 0 0.16016 0.007812 0.23438 0.015625 0.082031 0.011719 0.16016 0.03125 0.23438 0.0625z"/>
  </symbol>
 </defs>
 <g>
  <path d="m505.8 502.16-0.007812-0.10938-93.832 11.66-1.7461-14.16 94.527-11.746-1.875-25.551c-0.47266-6.4492-6.1211-11.344-12.547-10.863l-3.6914 0.27344-91.465 16.789-2.5586-14.035 91.812-16.855-3.9219-25.082c-1-6.3906-7.0312-10.801-13.398-9.8008l-3.8242 0.60156-89.258 19.77-3.0664-13.938 76.504-16.941-5.1914-21.895c-1.2148-5.1289-6.3906-8.3281-11.496-7.1055l-195.48 46.703c-5.1094 1.2227-8.2969 6.4141-7.082 11.543l4.3203 18.227-9.082 1.4336c-6.3711 1.0039-10.762 7.0586-9.7617 13.449l2.6836 17.137-8.0977 0.60156c-6.4297 0.47656-11.301 6.1445-10.828 12.602l1.2734 17.309h-4.6641c-6.4492 0-11.723 5.293-11.723 11.762v40.121h338.58v-40.121c0-6.4688-5.2773-11.762-11.723-11.762h-3.3711l-0.007813-0.015625zm-160.51-180.94-15.355 3.5625-31.453-136.51 15.355-3.5664c8.4883-1.9727 13.793-10.344 11.859-18.73l-7.0664-30.668c15.359-18.156 22.508-42.727 16.809-67.469-9.6484-41.891-51.836-67.855-94.25-58.008-42.395 9.8398-68.953 51.766-59.301 93.66 5.6953 24.723 22.871 43.648 44.609 53.191l7.0703 30.684c1.9336 8.3867 10.359 13.574 18.848 11.602l15.355-3.5664 31.453 136.51-15.355 3.5664c-16.953 3.9336-27.578 20.723-23.719 37.465l3.4961 15.168 122.84-28.52-3.4961-15.168c-3.8633-16.746-20.734-27.145-37.703-23.207zm-98.859-288.64c29.637-6.8789 59.23 11.336 65.977 40.609 0.96484 4.1875-1.6758 8.3789-5.9297 9.3672-4.2227 0.98047-8.4609-1.6133-9.4258-5.8008-4.8203-20.914-25.949-33.922-47.125-29.008-4.2227 0.98047-8.4609-1.6133-9.4258-5.8008-0.96094-4.1875 1.6953-8.3828 5.9297-9.3672z"/>
  <use x="170.707031" y="568.398438" xlink:href="#v"/>
  <use x="172.761719" y="568.398438" xlink:href="#c"/>
  <use x="174.140625" y="568.398438" xlink:href="#a"/>
  <use x="176.042969" y="568.398438" xlink:href="#m"/>
  <use x="177.929688" y="568.398438" xlink:href="#b"/>
  <use x="179.269531" y="568.398438" xlink:href="#a"/>
  <use x="181.167969" y="568.398438" xlink:href="#l"/>
  <use x="184.148438" y="568.398438" xlink:href="#k"/>
  <use x="186.152344" y="568.398438" xlink:href="#j"/>
  <use x="188.953125" y="568.398438" xlink:href="#i"/>
  <use x="191.332031" y="568.398438" xlink:href="#u"/>
  <use x="193.335938" y="568.398438" xlink:href="#b"/>
  <use x="194.675781" y="568.398438" xlink:href="#h"/>
  <use x="195.632813" y="568.398438" xlink:href="#e"/>
  <use x="198.550781" y="568.398438" xlink:href="#g"/>
  <use x="200.546875" y="568.398438" xlink:href="#t"/>
  <use x="203.1875" y="568.398438" xlink:href="#f"/>
  <use x="205.238281" y="568.398438" xlink:href="#c"/>
  <use x="206.621094" y="568.398438" xlink:href="#h"/>
  <use x="207.578125" y="568.398438" xlink:href="#e"/>
  <use x="210.496094" y="568.398438" xlink:href="#a"/>
  <use x="170.707031" y="571.199219" xlink:href="#s"/>
  <use x="171.925781" y="571.199219" xlink:href="#c"/>
  <use x="173.304688" y="571.199219" xlink:href="#d"/>
  <use x="175.230469" y="571.199219" xlink:href="#e"/>
  <use x="179.121094" y="571.199219" xlink:href="#b"/>
  <use x="180.460938" y="571.199219" xlink:href="#r"/>
  <use x="182.453125" y="571.199219" xlink:href="#a"/>
  <use x="185.328125" y="571.199219" xlink:href="#q"/>
  <use x="187.671875" y="571.199219" xlink:href="#d"/>
  <use x="189.59375" y="571.199219" xlink:href="#g"/>
  <use x="191.585938" y="571.199219" xlink:href="#p"/>
  <use x="194.554688" y="571.199219" xlink:href="#f"/>
  <use x="196.609375" y="571.199219" xlink:href="#c"/>
  <use x="197.988281" y="571.199219" xlink:href="#d"/>
  <use x="199.914062" y="571.199219" xlink:href="#o"/>
  <use x="200.871094" y="571.199219" xlink:href="#a"/>
  <use x="202.769531" y="571.199219" xlink:href="#n"/>
  <use x="204.429688" y="571.199219" xlink:href="#b"/>
 </g>
</svg>
